<svg xmlns="http://www.w3.org/2000/svg" data-name="Capa 1" viewBox="0 0 100 125" x="0px" y="0px"><title>Mesa de trabajo 1 copia 68</title><path d="M95.39,20.42a10.5,10.5,0,0,1,1.67,9.32L88.33,59.23A10.54,10.54,0,0,1,78.21,66.8H37.11A10.56,10.56,0,0,1,27,59.17L14.62,16.44a4.08,4.08,0,0,0-3.9-2.93h-5a3.25,3.25,0,0,1,0-6.5h5a10.56,10.56,0,0,1,10.14,7.63L33.21,57.36a4.08,4.08,0,0,0,3.9,2.94h41.1a4.08,4.08,0,0,0,3.89-2.91l8.73-29.5a4.06,4.06,0,0,0-3.9-5.21l-51.7,0a3.25,3.25,0,0,1,0-6.5h0l51.69,0A10.47,10.47,0,0,1,95.39,20.42ZM65.85,82.59A10.4,10.4,0,1,1,76.25,93,10.42,10.42,0,0,1,65.85,82.59Zm6.5,0a3.9,3.9,0,1,0,3.9-3.9A3.91,3.91,0,0,0,72.35,82.59ZM38.24,93a10.4,10.4,0,1,1,10.39-10.4A10.42,10.42,0,0,1,38.24,93Zm0-6.5a3.9,3.9,0,1,0-3.9-3.9A3.91,3.91,0,0,0,38.24,86.49Z"/><text x="0" y="115" fill="#000000" font-size="5px" font-weight="bold" font-family="'Helvetica Neue', Helvetica, Arial-Unicode, Arial, Sans-serif">Created by Fernanddo Santtander</text><text x="0" y="120" fill="#000000" font-size="5px" font-weight="bold" font-family="'Helvetica Neue', Helvetica, Arial-Unicode, Arial, Sans-serif">from the Noun Project</text></svg>